<svg xmlns="http://www.w3.org/2000/svg" viewBox="0 0 96 96" x="0px" y="0px"><title>Mold</title><g><path fill="#FF5733" d="M30.58,2.19c-7,.21-12.73,6.33-12.73,13.63V20H13.64C6.33,20,.22,25.74,0,32.76A13.12,13.12,0,0,0,13.13,46.3H38.41a5.71,5.71,0,0,0,5.7-5.71V15.31A13.12,13.12,0,0,0,30.58,2.19Zm11.53,38.4a3.71,3.71,0,0,1-3.7,3.71H13.13A11.12,11.12,0,0,1,2,32.82C2.18,26.87,7.4,22,13.64,22h5.21a1,1,0,0,0,1-1V15.82c0-6.23,4.84-11.45,10.79-11.63A11.12,11.12,0,0,1,42.11,15.31Z"/><path fill="#FF5733" d="M31,7.41a8.22,8.22,0,0,0-7.9,8.41v9.44H13.64a8.26,8.26,0,0,0-8.42,7.66,7.91,7.91,0,0,0,7.91,8.15H37.89a1,1,0,0,0,1-1V15.31A7.91,7.91,0,0,0,31,7.41ZM7.26,33.8c-.39-3.7,2.8-6.54,6.38-6.54h9.43v3.8H13.64A8.73,8.73,0,0,0,7.26,33.8Zm29.63,5.27H13.13A5.86,5.86,0,0,1,8,36.13a6.54,6.54,0,0,1,5.61-3.07H24.07a1,1,0,0,0,1-1V21.61c0-3.35,2.49-6.4,5.91-6.4a5.92,5.92,0,0,1,5.91,5.91Zm0-23.21A7.73,7.73,0,0,0,25.07,16a6.69,6.69,0,0,1,2.52-5.46,5.85,5.85,0,0,1,9.3,4.74Z"/><path fill="#FF5733" d="M94.81,29.94l-4-5.28A4,4,0,0,1,90.29,21l2.11-6.24a6,6,0,0,0-7.56-7.57L78.6,9.33A4,4,0,0,1,75,8.75L69.67,4.81a6,6,0,0,0-9.53,4.86l.09,6.59a4,4,0,0,1-1.68,3.28l-5.38,3.81a6,6,0,0,0,1.67,10.56l6.3,2a4,4,0,0,1,2.61,2.61l2,6.29a6,6,0,0,0,10.57,1.68l3.8-5.39a4,4,0,0,1,3.29-1.67l6.59.08A6,6,0,0,0,94.81,29.94ZM90,37.47l-6.59-.08a5.94,5.94,0,0,0-5,2.52l-3.81,5.38a4,4,0,0,1-7-1.11l-2-6.29A6,6,0,0,0,61.73,34l-6.29-2a4,4,0,0,1-1.11-7l5.38-3.8a6,6,0,0,0,2.52-4.95l-.09-6.59a4,4,0,0,1,6.34-3.23l5.28,3.95a6,6,0,0,0,5.48.86l6.24-2.11a4,4,0,0,1,5,5l-2.12,6.25a6,6,0,0,0,.87,5.48l3.94,5.28A4,4,0,0,1,90,37.47Z"/><path fill="#FF5733" d="M86.68,27.79a9.17,9.17,0,0,1-1.27-8.64c.08-.25-.13.38,1.88-5.55A1,1,0,0,0,86,12.33l-5.74,1.95a9.28,9.28,0,0,1-8.44-1.34L67,9.31a1,1,0,0,0-1.59.81l.06,4.57c-.09.25-.07.1,0,2.54a9.24,9.24,0,0,1-3.82,6.58l-5,3.5a1,1,0,0,0,.28,1.77c6.6,2.06,7.65,2.17,9.56,4.08a9.18,9.18,0,0,1,2.27,3.77l1.81,5.79a1,1,0,0,0,1.77.28l3.5-5a9.09,9.09,0,0,1,7.62-3.88l6.06.07a1,1,0,0,0,.82-1.59Zm-16-13.25a11.28,11.28,0,0,0,10.28,1.63l3.82-1.29L83.67,18l-3.39,1.16a9.22,9.22,0,0,1-8.45-1.34l-4.4-3.28,0-2.44Zm-8.8,14-2.41-.75c2.41-1.7,4.37-2.82,5.86-4.85A9.18,9.18,0,0,1,61.84,28.52Zm21.61,3.65a11.21,11.21,0,0,0-9.28,4.73l-2.33,3.29c-1.1-3.54-1.55-6-4-8.44A11.33,11.33,0,0,0,64,29.25c4.53-4.38,3.2-9.37,3.39-12.21l3.23,2.41a11.19,11.19,0,0,0,6.69,2.22A15.8,15.8,0,0,0,83,20.36a11.19,11.19,0,0,0,2,8.62l2.42,3.24Z"/><path fill="#FF5733" d="M22.06,58.19A15.2,15.2,0,1,0,37.26,73.4,15.21,15.21,0,0,0,22.06,58.19Zm0,28.4A13.22,13.22,0,0,1,9.28,76.71a13.2,13.2,0,0,1,25.55,0A13.23,13.23,0,0,1,22.05,86.59ZM8.89,72.42a13.2,13.2,0,0,1,26.33,0A15.22,15.22,0,0,0,8.89,72.42Z"/><path fill="#FF5733" d="M22.06,53A20.43,20.43,0,1,0,42.48,73.39,20.45,20.45,0,0,0,22.06,53Zm0,38.85A18.43,18.43,0,1,1,40.48,73.39,18.45,18.45,0,0,1,22.06,91.82Z"/><path fill="#FF5733" d="M90.22,55.62H59.08a3.53,3.53,0,0,0-3.53,3.53V90.28a3.54,3.54,0,0,0,3.53,3.54H90.22a3.53,3.53,0,0,0,3.52-3.54V59.15A3.52,3.52,0,0,0,90.22,55.62Zm1.52,34.66a1.53,1.53,0,0,1-1.52,1.54H59.08a1.54,1.54,0,0,1-1.53-1.54V59.15a1.54,1.54,0,0,1,1.53-1.53H90.22a1.53,1.53,0,0,1,1.52,1.53Z"/><path fill="#FF5733" d="M87.52,60.84H61.77a1,1,0,0,0-1,1V87.59a1,1,0,0,0,1,1H87.52a1,1,0,0,0,1-1V61.84A1,1,0,0,0,87.52,60.84Zm-1,25.75H62.77V69.35H86.52Zm0-19.24H62.77V62.84H86.52Z"/></g><text x="0" y="111" fill="#000000" font-size="5px" font-weight="bold" font-family="'Helvetica Neue', Helvetica, Arial-Unicode, Arial, Sans-serif">Created by tezar tantular</text><text x="0" y="116" fill="#000000" font-size="5px" font-weight="bold" font-family="'Helvetica Neue', Helvetica, Arial-Unicode, Arial, Sans-serif">from the Noun Project</text></svg>