<svg xmlns:inkscape="http://www.inkscape.org/namespaces/inkscape" xmlns:sodipodi="http://sodipodi.sourceforge.net/DTD/sodipodi-0.dtd" xmlns="http://www.w3.org/2000/svg" xmlns:svg="http://www.w3.org/2000/svg" viewBox="0 0 96 96" version="1.1" x="0px" y="0px"><g><path style="color:#000000;" d="M 48,2 C 35.873437,2 26,11.873437 26,24 26,36.126563 35.873437,46 48,46 60.126563,46 70,36.126563 70,24 70,11.873437 60.126563,2 48,2 Z m 0,4 c 9.964805,0 18,8.035195 18,18 0,9.964805 -8.035195,18 -18,18 C 38.035195,42 30,33.964805 30,24 30,14.035195 38.035195,6 48,6 Z" fill="#FF5733" stroke-linecap="round" stroke-linejoin="round"/><path style="color:#000000;" d="M 48,50 C 36.576827,50 26.233937,52.918009 18.613281,57.791016 10.992625,62.664022 6,69.653532 6,77.578125 V 92 a 2.00019,2.00019 0 0 0 2,2 h 80 a 2.00019,2.00019 0 0 0 2,-2 V 77.578125 C 90,69.653532 85.007375,62.664022 77.386719,57.791016 69.766063,52.918009 59.423173,50 48,50 Z m 0,4 c 10.736805,0 20.393092,2.786767 27.232422,7.160156 C 82.071751,65.533546 86,71.332112 86,77.578125 V 90 H 10 V 77.578125 C 10,71.332112 13.928249,65.533546 20.767578,61.160156 27.606908,56.786767 37.263195,54 48,54 Z" fill="#FF5733" stroke-linecap="round" stroke-linejoin="round"/></g></svg>