<svg xmlns="http://www.w3.org/2000/svg" xmlns:xlink="http://www.w3.org/1999/xlink" version="1.1" x="0px" y="0px" viewBox="0 0 100 100" style="enable-background:new 0 0 100 100;" xml:space="preserve"><g><path fill="#FF5733" d="M42.1,5.9c-0.9-0.5-2-0.6-2.9-0.2c-8.7,4.1-14.3,13-14.3,22.6c0,9,4.9,17.3,12.6,21.7v32c0,6.9,5.6,12.5,12.5,12.5   c6.9,0,12.5-5.6,12.5-12.5l0-32c7.7-4.4,12.6-12.8,12.6-21.7c0-9.6-5.6-18.5-14.3-22.6c-0.9-0.4-2-0.4-2.9,0.2   c-0.9,0.5-1.4,1.5-1.4,2.5v14.7H43.5V8.5C43.5,7.4,43,6.5,42.1,5.9z M59.5,29.2c1.7,0,3-1.3,3-3V14c4.1,3.6,6.6,8.8,6.6,14.4   c0,7.3-4.3,14-10.9,17.2c-1,0.5-1.7,1.6-1.7,2.7l0,33.8c0,3.6-2.9,6.5-6.5,6.5c-3.6,0-6.5-2.9-6.5-6.5V48.3c0-1.2-0.7-2.2-1.7-2.7   c-6.6-3.1-10.9-9.9-10.9-17.2c0-5.6,2.5-10.8,6.6-14.4v12.2c0,1.7,1.3,3,3,3H59.5z"/></g></svg>