<svg xmlns="http://www.w3.org/2000/svg" data-name="Layer 1" viewBox="0 0 64 64" x="0px" y="0px"><path fill="pink" d="M34.46436,23.32812a9.90807,9.90807,0,0,0-2.58252-.32714,9.55434,9.55434,0,0,0-2.3462.33105,1.00054,1.00054,0,0,0-.74121.96582l-.00879.999a7.72033,7.72033,0,0,0-1.13037.62988.1464.1464,0,0,1-.09863-.0166l-.86377-.48243a.99939.99939,0,0,0-1.17676.14844,8.93,8.93,0,0,0-2.48242,4.16211,1.001,1.001,0,0,0,.47852,1.13086l.8999.50293q-.02929.31641-.0293.62793,0,.312.0293.62793l-.89941.50293a1.00045,1.00045,0,0,0-.47852,1.13086,8.927,8.927,0,0,0,2.47705,4.165,1.00032,1.00032,0,0,0,1.17725.14844l.86718-.48536a.117.117,0,0,1,.10059-.01562,12.644,12.644,0,0,0,1.13818.66406v.96777a1,1,0,0,0,.74121.96583,9.50046,9.50046,0,0,0,2.46.32812c.04052,0,.08154-.001.12255-.001a9.55434,9.55434,0,0,0,2.3462-.33105,1.00054,1.00054,0,0,0,.74121-.96582l.00879-.999a7.75026,7.75026,0,0,0,1.13085-.62988.12554.12554,0,0,1,.09815.0166l.86377.48243a1.001,1.001,0,0,0,1.17676-.14844,8.93,8.93,0,0,0,2.48242-4.16211,1.001,1.001,0,0,0-.47852-1.13086l-.8999-.50293q.02929-.31641.0293-.62793,0-.312-.0293-.62793l.89941-.50293a1.001,1.001,0,0,0,.47852-1.13086,8.93827,8.93827,0,0,0-2.477-4.165,1.00191,1.00191,0,0,0-1.17725-.14844l-.86718.48536a.14462.14462,0,0,1-.10059.01562,12.5478,12.5478,0,0,0-1.13818-.66406V24.294A1,1,0,0,0,34.46436,23.32812Zm.76171,4.25586a2.11084,2.11084,0,0,0,2.19288.07227l.19043-.10645A6.9326,6.9326,0,0,1,38.794,29.52441l-.77979.43555a1.00061,1.00061,0,0,0-.49463,1.06055,4.96077,4.96077,0,0,1,0,1.959A1.00061,1.00061,0,0,0,38.01416,34.04l.77979.43555a6.93,6.93,0,0,1-1.18848,1.97265l-.1875-.10449a2.10224,2.10224,0,0,0-2.18945.07031,5.73191,5.73191,0,0,1-.83838.4668,2.03512,2.03512,0,0,0-1.18457,1.85742v.15918a7.11564,7.11564,0,0,1-1.1128.10156,6.75479,6.75479,0,0,1-1.29834-.09863v-.16211a2.03512,2.03512,0,0,0-1.18457-1.85742,5.69026,5.69026,0,0,1-.83593-.46582,2.113,2.113,0,0,0-2.19288-.07129l-.19043.10645a6.91029,6.91029,0,0,1-1.18457-1.97461l.77979-.43555a1.00061,1.00061,0,0,0,.49463-1.06055,4.96077,4.96077,0,0,1,0-1.959A1.00061,1.00061,0,0,0,25.98584,29.96l-.77979-.43555a6.93,6.93,0,0,1,1.18848-1.97265l.187.10449a2.10989,2.10989,0,0,0,2.18994-.07031,5.73191,5.73191,0,0,1,.83838-.4668,2.03512,2.03512,0,0,0,1.18457-1.85742v-.15918a7.11564,7.11564,0,0,1,1.1128-.10156,6.3324,6.3324,0,0,1,1.29834.09863v.16211a2.03512,2.03512,0,0,0,1.18457,1.85742A5.75092,5.75092,0,0,1,35.22607,27.584Z"/><path fill="pink" d="M28,32a4,4,0,1,0,4-4A4.00427,4.00427,0,0,0,28,32Zm6,0a2,2,0,1,1-2-2A2.00229,2.00229,0,0,1,34,32Z"/><path fill="pink" d="M1.044,47.28027a9.315,9.315,0,0,0,3.15966,7.94629A2.302,2.302,0,0,1,5,56.97559V59a4.00427,4.00427,0,0,0,4,4h2a4.00427,4.00427,0,0,0,4-4V56.97559a2.2589,2.2589,0,0,1,.77148-1.72754,9.32206,9.32206,0,0,0,.14844-13.97852,8.80008,8.80008,0,0,0-6.94531-2.21094A9.10837,9.10837,0,0,0,1.044,47.28027ZM11,61H9a1.9934,1.9934,0,0,1-1.72174-1h5.44348A1.9934,1.9934,0,0,1,11,61Zm2-3H7V57h6ZM10.00439,41a6.82225,6.82225,0,0,1,4.583,1.76172,7.32079,7.32079,0,0,1-.11572,10.96582A4.15425,4.15425,0,0,0,13.49023,55H6.50433a4.26412,4.26412,0,0,0-.99554-1.28906,7.31143,7.31143,0,0,1-2.47363-6.24121,7.1921,7.1921,0,0,1,6.165-6.42481A7.19946,7.19946,0,0,1,10.00439,41Z"/><path d="M9.24951,45.09473l-.499-1.9375A4.999,4.999,0,0,0,5.15771,46.751l1.93653.498A2.99829,2.99829,0,0,1,9.24951,45.09473Z"/><path fill="pink"  d="M62,1H48a.99974.99974,0,0,0-1,1V16a.99974.99974,0,0,0,1,1H62a.99974.99974,0,0,0,1-1V2A.99974.99974,0,0,0,62,1ZM54,3h2V7H54Zm7,12H49V3h3V8a.99974.99974,0,0,0,1,1h4a.99974.99974,0,0,0,1-1V3h3Z"/><path fill="pink" d="M24,8H18a9.01016,9.01016,0,0,0-9,9V36h2V17a7.00818,7.00818,0,0,1,7-7h6a7.00818,7.00818,0,0,1,7,7v3h2V17A9.01016,9.01016,0,0,0,24,8Z"/><path d="M47,54H40a7.00818,7.00818,0,0,1-7-7V44H31v3a9.01016,9.01016,0,0,0,9,9h7a9.01016,9.01016,0,0,0,9-9V29h3a.99992.99992,0,0,0,.832-1.55469l-4-6a1.03785,1.03785,0,0,0-1.66406,0l-4,6A.99992.99992,0,0,0,51,29h3V47A7.00818,7.00818,0,0,1,47,54Zm5.86865-27L55,23.80273,57.13135,27Z" fill="pink" /></svg>