<svg xmlns="http://www.w3.org/2000/svg" viewBox="0 0 66 66" x="0px" y="0px"><path fill="green" d="M710.868243,576.503861 L722.868243,597.503861 C723.24919,598.170518 722.767823,599 722,599 L698,599 C697.232177,599 696.75081,598.170518 697.131757,597.503861 L709.131757,576.503861 C709.515651,575.832046 710.484349,575.832046 710.868243,576.503861 Z M699.72318,597 L720.27682,597 L710,579.015564 L699.72318,597 Z M678,537 L698,537 C698.552285,537 699,537.447715 699,538 L699,558 C699,558.552285 698.552285,559 698,559 L678,559 C677.447715,559 677,558.552285 677,558 L677,538 C677,537.447715 677.447715,537 678,537 Z M679,539 L679,557 L697,557 L697,539 L679,539 Z M716,566.585786 L719.292893,563.292893 C719.683418,562.902369 720.316582,562.902369 720.707107,563.292893 C721.097631,563.683418 721.097631,564.316582 720.707107,564.707107 L715.707107,569.707107 C715.316582,570.097631 714.683418,570.097631 714.292893,569.707107 L709.292893,564.707107 C708.902369,564.316582 708.902369,563.683418 709.292893,563.292893 C709.683418,562.902369 710.316582,562.902369 710.707107,563.292893 L714,566.585786 L714,549 L706,549 C705.447715,549 705,548.552285 705,548 C705,547.447715 705.447715,547 706,547 L715,547 C715.552285,547 716,547.447715 716,548 L716,566.585786 Z M685.414214,583 L688.707107,586.292893 C689.097631,586.683418 689.097631,587.316582 688.707107,587.707107 C688.316582,588.097631 687.683418,588.097631 687.292893,587.707107 L682.292893,582.707107 C681.902369,582.316582 681.902369,581.683418 682.292893,581.292893 L687.292893,576.292893 C687.683418,575.902369 688.316582,575.902369 688.707107,576.292893 C689.097631,576.683418 689.097631,577.316582 688.707107,577.707107 L685.414214,581 L698,581 C698.552285,581 699,581.447715 699,582 C699,582.552285 698.552285,583 698,583 L685.414214,583 Z M668.5,603 C662.148725,603 657,597.851275 657,591.5 C657,585.148725 662.148725,580 668.5,580 C674.851275,580 680,585.148725 680,591.5 C680,597.851275 674.851275,603 668.5,603 Z M668.5,601 C673.746705,601 678,596.746705 678,591.5 C678,586.253295 673.746705,582 668.5,582 C663.253295,582 659,586.253295 659,591.5 C659,596.746705 663.253295,601 668.5,601 Z M667.585786,549 L664.292893,545.707107 C663.902369,545.316582 663.902369,544.683418 664.292893,544.292893 C664.683418,543.902369 665.316582,543.902369 665.707107,544.292893 L670.707107,549.292893 C671.097631,549.683418 671.097631,550.316582 670.707107,550.707107 L665.707107,555.707107 C665.316582,556.097631 664.683418,556.097631 664.292893,555.707107 C663.902369,555.316582 663.902369,554.683418 664.292893,554.292893 L667.585786,551 L659,551 L659,572 C659,572.552285 658.552285,573 658,573 C657.447715,573 657,572.552285 657,572 L657,550 C657,549.447715 657.447715,549 658,549 L667.585786,549 Z" transform="translate(-657 -537)"/></svg>