<svg xmlns="http://www.w3.org/2000/svg" xmlns:xlink="http://www.w3.org/1999/xlink" version="1.1" x="0px" y="0px" viewBox="0 0 510 510" style="enable-background:new 0 0 510 510;" xml:space="preserve"><path fill="yellow" d="M103.4,200.7c-3.3-5.7,5.4-10.7,8.6-5l13.7,23.8l48.2-48.2c4.6-4.6,11.7,2.4,7.1,7.1l-52.8,52.8v0c-2.3,2.3-6.2,1.8-7.9-1  L103.4,200.7z M145.2,127.8c41.8,0,75.7,33.9,75.7,75.7s-33.9,75.7-75.7,75.7c-41.8,0-75.7-33.9-75.7-75.7S103.5,127.8,145.2,127.8  L145.2,127.8z M191.6,157.1c-25.6-25.6-67.2-25.6-92.8,0c-25.7,25.7-25.7,67.2,0,92.9c25.6,25.6,67.2,25.6,92.8,0  C217.3,224.3,217.3,182.7,191.6,157.1L191.6,157.1z M150.2,83.4c64.2,2.6,115.2,55.5,115.2,120.1c0,43.1-22.8,81.6-58.1,102.9v115.3  c0,4.1-4.7,6.6-8.1,3.9l-49-36.6v75.1l324.8-0.5V45.8H150.2V83.4z M197.4,311.8c-32.9,15.8-71.5,15.8-104.3,0v99.9l49-36.6  c1.9-1.5,4.4-1.5,6.3,0l49,36.6V311.8z M83,306.4C16.4,266.1,4.9,173.8,60.2,118.5c20.6-20.7,48.8-33.8,80-35.1V40.8  c0-2.7,2.2-5,5-5H480c2.7,0,5,2.2,5,5v427.9c0,2.7-2.2,5-5,5l-334.8,0.5c-2.7,0-5-2.2-5-5h0v-80.2L91,425.8c-3.3,2.5-8,0-8-4l0,0  V306.4z M223.2,125.5c-43-43-112.8-43-155.9,0c-43,43.1-43,112.8,0,155.9c43.1,43.1,112.8,43.1,155.9,0  C266.2,238.4,266.2,168.6,223.2,125.5L223.2,125.5z M409.8,367.7h14.4c11.4,0,20.6,9.3,20.6,20.7v14.3c0,11.4-9.3,20.7-20.6,20.7  h-14.4c-11.4,0-20.6-9.3-20.6-20.7v-14.3C389.2,377,398.4,367.7,409.8,367.7L409.8,367.7z M424.2,377.7h-14.4  c-5.8,0-10.6,4.8-10.6,10.7v14.3c0,5.9,4.8,10.7,10.6,10.7h14.4c5.8,0,10.7-4.8,10.7-10.7v-14.3C434.8,382.6,430,377.7,424.2,377.7  L424.2,377.7z M270.8,134.5c-6.6,0-6.6-10,0-10h99.4c6.6,0,6.6,10,0,10H270.8z M259.5,104.5c-6.6,0-6.6-10,0-10h110.7  c6.6,0,6.6,10,0,10H259.5z M295.1,228c-6.6,0-6.6-10,0-10h75.1c6.6,0,6.6,10,0,10H295.1z M282,198c-6.6,0-6.6-10,0-10h88.3  c6.6,0,6.6,10,0,10H282z M251,321.5c-6.6,0-6.6-10,0-10h119.3c6.6,0,6.6,10,0,10H251z M282.5,291.5c-6.6,0-6.6-10,0-10h87.7  c6.6,0,6.6,10,0,10H282.5z M370.3,406.1c6.6,0,6.6,10,0,10h-97.4c-6.6,0-6.6-10,0-10H370.3z M370.3,375c6.6,0,6.6,10,0,10h-60.7  c-6.6,0-6.6-10,0-10H370.3z M409.8,274h14.4c11.4,0,20.6,9.3,20.6,20.6v14.4c0,11.4-9.3,20.6-20.6,20.6h-14.4  c-11.4,0-20.6-9.3-20.6-20.6v-14.4C389.2,283.3,398.4,274,409.8,274L409.8,274z M424.2,284.1h-14.4c-5.8,0-10.6,4.8-10.6,10.6v14.4  c0,5.8,4.8,10.7,10.6,10.7h14.4c5.8,0,10.7-4.8,10.7-10.7v-14.4C434.8,288.8,430,284.1,424.2,284.1L424.2,284.1z M409.8,180.3h14.4  c11.4,0,20.6,9.3,20.6,20.7v14.3c0,11.4-9.3,20.7-20.6,20.7h-14.4c-11.4,0-20.6-9.3-20.6-20.7V201  C389.2,189.6,398.4,180.3,409.8,180.3L409.8,180.3z M424.2,190.3h-14.4c-5.8,0-10.6,4.8-10.6,10.7v14.3c0,5.8,4.8,10.7,10.6,10.7  h14.4c5.8,0,10.7-4.8,10.7-10.7V201C434.8,195.1,430,190.3,424.2,190.3L424.2,190.3z M409.8,86.6h14.4c11.4,0,20.6,9.3,20.6,20.7  v14.3c0,11.4-9.3,20.7-20.6,20.7h-14.4c-11.4,0-20.6-9.3-20.6-20.7v-14.3C389.2,95.9,398.4,86.6,409.8,86.6L409.8,86.6z M424.2,96.6  h-14.4c-5.8,0-10.6,4.8-10.6,10.7v14.3c0,5.9,4.8,10.7,10.6,10.7h14.4c5.8,0,10.7-4.8,10.7-10.7v-14.3  C434.8,101.4,430,96.6,424.2,96.6L424.2,96.6z"/></svg>