<svg xmlns="http://www.w3.org/2000/svg" xmlns:xlink="http://www.w3.org/1999/xlink" version="1.1" x="0px" y="0px" viewBox="0 0 64 64" enable-background="new 0 0 64 64" xml:space="preserve">
<g id="link-outline-top_x5F_s1g1_x5F_s2g2_x5F_s3g1_x5F_s4g2">
	<g id="home-outline-first_x5F_s1g1_x5F_s2g1_x5F_s3g1_x5F_s4g1_1_">
	</g>
	
		<line fill="#E6E9EC" stroke="#000000" stroke-width="1.5" stroke-linecap="round" stroke-linejoin="round" stroke-miterlimit="10" x1="38.823" y1="39.177" x2="40.573" y2="40.927"/>
	
		<line fill="#E6E9EC" stroke="#000000" stroke-width="1.5" stroke-linecap="round" stroke-linejoin="round" stroke-miterlimit="10" x1="23.039" y1="23.394" x2="24.789" y2="25.144"/>
</g>
<g id="link-outline-bot_x5F_s1g1_x5F_s2g1_x5F_s3g1_x5F_s4g1_x5F_background">
	
		<path fill="#FFFFFF" stroke="#000000" stroke-width="1.5" stroke-linecap="round" stroke-linejoin="round" stroke-miterlimit="10" d="   M42.915,15.493l5.592,5.592c1.544,1.544,1.544,4.048,0,5.592l-5.592,5.592c-1.544,1.544-4.048,1.544-5.592,0l-5.592-5.592   c-1.544-1.544-1.544-4.048,0-5.592l5.592-5.592C38.868,13.949,41.371,13.949,42.915,15.493z"/>
	
		<path fill="#FFFFFF" stroke="#000000" stroke-width="1.5" stroke-linecap="round" stroke-linejoin="round" stroke-miterlimit="10" d="   M15.493,42.915l5.592,5.592c1.544,1.544,4.048,1.544,5.592,0l5.592-5.592c1.544-1.544,1.544-4.048,0-5.592l-5.592-5.592   c-1.544-1.544-4.048-1.544-5.592,0l-5.592,5.592C13.949,38.868,13.949,41.371,15.493,42.915z"/>
</g>
<g id="link-outline-top_x5F_s1g1_x5F_s2g2_x5F_s3g1_x5F_s4g1">
	
		<line fill="none" stroke="#000000" stroke-width="1.5" stroke-linecap="round" stroke-linejoin="round" stroke-miterlimit="10" x1="33.573" y1="30.427" x2="38.959" y2="25.041"/>
	
		<line fill="none" stroke="#000000" stroke-width="1.5" stroke-linecap="round" stroke-linejoin="round" stroke-miterlimit="10" x1="30.427" y1="33.573" x2="25.041" y2="38.959"/>
</g>
</svg>