<svg xmlns="http://www.w3.org/2000/svg" xmlns:xlink="http://www.w3.org/1999/xlink" version="1.1" x="0px" y="0px" viewBox="0 0 64 64" enable-background="new 0 0 64 64" xml:space="preserve">
<g id="plugin-outline-bot_x5F_s1g1_x5F_s2g2_x5F_s3g1_x5F_s4g2">
	
		<line fill="none" stroke="#000000" stroke-width="1.5" stroke-linecap="round" stroke-linejoin="round" stroke-miterlimit="10" x1="41.45" y1="47.75" x2="41.45" y2="35.15"/>
	
		<line fill="none" stroke="#000000" stroke-width="1.5" stroke-linecap="round" stroke-linejoin="round" stroke-miterlimit="10" x1="35.15" y1="41.45" x2="47.75" y2="41.45"/>
</g>
<g id="plugin-outline-bot_x5F_s1g1_x5F_s2g1_x5F_s3g1_x5F_s4g2_x5F_background">
	<g id="Layer_5">
	</g>
	
		<path fill="#FFFFFF" stroke="#000000" stroke-width="1.5" stroke-linecap="round" stroke-linejoin="round" stroke-miterlimit="10" d="   M38.3,16.25h6.3c1.74,0,3.15,1.41,3.15,3.15v6.3c0,1.74-1.41,3.15-3.15,3.15h-6.3c-1.74,0-3.15-1.41-3.15-3.15v-6.3   C35.15,17.66,36.56,16.25,38.3,16.25z"/>
	
		<path fill="#FFFFFF" stroke="#000000" stroke-width="1.5" stroke-linecap="round" stroke-linejoin="round" stroke-miterlimit="10" d="   M19.4,35.15h6.3c1.74,0,3.15,1.41,3.15,3.15v6.3c0,1.74-1.41,3.15-3.15,3.15h-6.3c-1.74,0-3.15-1.41-3.15-3.15v-6.3   C16.25,36.56,17.66,35.15,19.4,35.15z"/>
</g>
<g id="plugin-outline-top_x5F_s1g1_x5F_s2g2_x5F_s3g1_x5F_s4g2_x5F_background">
	
		<path fill="#FFFFFF" stroke="#000000" stroke-width="1.5" stroke-linecap="round" stroke-linejoin="round" stroke-miterlimit="10" d="   M19.4,16.25h6.3c1.74,0,3.15,1.41,3.15,3.15v6.3c0,1.74-1.41,3.15-3.15,3.15h-6.3c-1.74,0-3.15-1.41-3.15-3.15v-6.3   C16.25,17.66,17.66,16.25,19.4,16.25z"/>
</g>
</svg>