<svg xmlns="http://www.w3.org/2000/svg" data-name="Layer 1" viewBox="0 0 48 48" x="0px" y="0px"><title>support</title><path d="M43.5,30a7,7,0,0,0-7-7V12.5a12.5,12.5,0,0,0-25,0V23a7,7,0,0,0,0,14h1a1,1,0,0,0,1-1V12.5a10.5,10.5,0,0,1,21,0V36a1,1,0,0,0,1,1h1a6.81,6.81,0,0,0,2-.29,9.2,9.2,0,0,1-2.55,5.72A11.75,11.75,0,0,1,27.31,46H22.5a1,1,0,0,0,0,2h4.81a13.77,13.77,0,0,0,10.07-4.2A11.1,11.1,0,0,0,40.5,36a1,1,0,0,0,0-.23A7,7,0,0,0,43.5,30Zm-32,5a5,5,0,0,1,0-10Zm25-10a5,5,0,0,1,0,10Z" fill="skyblue"/></svg>